<svg aria-hidden="true" style="position: absolute; width: 0; height: 0; overflow: hidden;" version="1.1" xmlns="http://www.w3.org/2000/svg" xmlns:xlink="http://www.w3.org/1999/xlink">
<defs>
<symbol id="icon-calendar" viewBox="0 0 32 32">
<path stroke-linejoin="round" stroke-linecap="round" stroke-miterlimit="4" stroke-width="3" d="M25.333 5.332h-18.667c-1.473 0-2.667 1.194-2.667 2.667v18.667c0 1.473 1.194 2.667 2.667 2.667h18.667c1.473 0 2.667-1.194 2.667-2.667v-18.667c0-1.473-1.194-2.667-2.667-2.667z"></path>
<path stroke-linejoin="round" stroke-linecap="round" stroke-miterlimit="4" stroke-width="3" d="M21.332 2.668v5.333"></path>
<path stroke-linejoin="round" stroke-linecap="round" stroke-miterlimit="4" stroke-width="3" d="M10.668 2.668v5.333"></path>
<path stroke-linejoin="round" stroke-linecap="round" stroke-miterlimit="4" stroke-width="3" d="M4 13.332h24"></path>
</symbol>
<symbol id="icon-ci_users" viewBox="0 0 32 32">
<path stroke-linejoin="round" stroke-linecap="round" stroke-miterlimit="4" stroke-width="2.6667" d="M28 26.667c0-2.323-2.227-4.297-5.333-5.031M20 26.667c0-2.947-3.581-5.333-8-5.333s-8 2.387-8 5.333M20 17.333c1.414 0 2.771-0.562 3.771-1.562s1.562-2.357 1.562-3.771c0-1.415-0.562-2.771-1.562-3.771s-2.357-1.562-3.771-1.562M12 17.333c-1.415 0-2.771-0.562-3.771-1.562s-1.562-2.357-1.562-3.771c0-1.415 0.562-2.771 1.562-3.771s2.357-1.562 3.771-1.562c1.415 0 2.771 0.562 3.771 1.562s1.562 2.357 1.562 3.771c0 1.415-0.562 2.771-1.562 3.771s-2.357 1.562-3.771 1.562z"></path>
</symbol>
<symbol id="icon-edit" viewBox="0 0 32 32">
<path stroke-linejoin="round" stroke-linecap="round" stroke-miterlimit="4" stroke-width="2.6" d="M22.67 4.002c0.35-0.35 0.766-0.628 1.224-0.817s0.948-0.287 1.443-0.287c0.495 0 0.986 0.098 1.443 0.287s0.873 0.467 1.223 0.817 0.628 0.766 0.817 1.223c0.19 0.458 0.287 0.948 0.287 1.443s-0.098 0.986-0.287 1.443c-0.189 0.458-0.467 0.873-0.817 1.223l-18 18-7.333 2 2-7.333 18-18z"></path>
</symbol>
<symbol id="icon-filter" viewBox="0 0 32 32">
<path stroke-linejoin="round" stroke-linecap="round" stroke-miterlimit="4" stroke-width="3.4286" d="M29.332 4h-26.667l10.667 12.613v8.72l5.333 2.667v-11.387l10.667-12.613z"></path>
</symbol>
<symbol id="icon-dashboard" viewBox="0 0 32 32">
<path d="M5.468 17.316h7.896c0.724 0 1.316-0.592 1.316-1.316v-10.528c0-0.724-0.592-1.316-1.316-1.316h-7.896c-0.724 0-1.316 0.592-1.316 1.316v10.528c0 0.724 0.592 1.316 1.316 1.316zM5.468 27.844h7.896c0.724 0 1.316-0.592 1.316-1.316v-5.264c0-0.724-0.592-1.316-1.316-1.316h-7.896c-0.724 0-1.316 0.592-1.316 1.316v5.264c0 0.724 0.592 1.316 1.316 1.316zM18.628 27.844h7.896c0.724 0 1.316-0.592 1.316-1.316v-10.528c0-0.724-0.592-1.316-1.316-1.316h-7.896c-0.724 0-1.316 0.592-1.316 1.316v10.528c0 0.724 0.592 1.316 1.316 1.316zM17.312 5.471v5.264c0 0.724 0.592 1.316 1.316 1.316h7.896c0.724 0 1.316-0.592 1.316-1.316v-5.264c0-0.724-0.592-1.316-1.316-1.316h-7.896c-0.724 0-1.316 0.592-1.316 1.316z"></path>
</symbol>
<symbol id="icon-shopping-cart" viewBox="0 0 32 32">
<path d="M9.333 24c-1.467 0-2.653 1.2-2.653 2.667s1.187 2.667 2.653 2.667 2.667-1.2 2.667-2.667c0-1.467-1.2-2.667-2.667-2.667zM1.333 4c0 0.733 0.6 1.333 1.333 1.333h1.333l4.8 10.12-1.8 3.253c-0.973 1.787 0.307 3.96 2.333 3.96h14.667c0.733 0 1.333-0.6 1.333-1.333s-0.6-1.333-1.333-1.333h-14.667l1.467-2.667h9.933c1 0 1.88-0.547 2.333-1.373l4.773-8.653c0.112-0.202 0.17-0.43 0.167-0.661s-0.066-0.458-0.183-0.657c-0.117-0.199-0.284-0.365-0.485-0.48s-0.428-0.175-0.659-0.175h-19.733l-0.893-1.907c-0.107-0.228-0.277-0.42-0.489-0.555s-0.459-0.206-0.711-0.205h-2.187c-0.733 0-1.333 0.6-1.333 1.333zM22.667 24c-1.467 0-2.653 1.2-2.653 2.667s1.187 2.667 2.653 2.667 2.667-1.2 2.667-2.667c0-1.467-1.2-2.667-2.667-2.667z"></path>
</symbol>
<symbol id="icon-burger" viewBox="0 0 32 32">
<path stroke-linejoin="round" stroke-linecap="round" stroke-miterlimit="4" stroke-width="2" d="M4 8.001h24M4 16.001h24M4 24.001h24"></path>
</symbol>
<symbol id="icon-logout" viewBox="0 0 32 32">
<path d="M8.104 2.84c-1.047 0-2.051 0.416-2.792 1.156s-1.156 1.745-1.156 2.792v18.424c0 1.047 0.416 2.051 1.156 2.792s1.745 1.157 2.792 1.157h7.896c1.047 0 2.051-0.416 2.792-1.157s1.156-1.744 1.156-2.792v-18.424c0-1.047-0.416-2.051-1.156-2.792s-1.745-1.156-2.792-1.156h-7.896zM21.65 9.805c0.247-0.247 0.581-0.385 0.93-0.385s0.684 0.139 0.93 0.385l5.264 5.264c0.247 0.247 0.385 0.581 0.385 0.93s-0.139 0.684-0.385 0.93l-5.264 5.264c-0.248 0.24-0.581 0.372-0.926 0.369s-0.675-0.141-0.919-0.385c-0.244-0.244-0.382-0.574-0.385-0.919s0.13-0.677 0.369-0.926l3.018-3.018h-11.299c-0.349 0-0.684-0.139-0.931-0.385s-0.385-0.582-0.385-0.931c0-0.349 0.139-0.684 0.385-0.931s0.582-0.385 0.931-0.385h11.299l-3.018-3.018c-0.247-0.247-0.385-0.581-0.385-0.93s0.139-0.684 0.385-0.93z"></path>
</symbol>
<symbol id="icon-mdi_local-pharmacy" viewBox="0 0 32 32">
<path d="M21.264 18.632h-3.948v3.948h-2.632v-3.948h-3.948v-2.632h3.948v-3.948h2.632v3.948h3.948zM27.845 6.788h-3.488l1.514-4.145-3.093-1.119-1.921 5.264h-16.7v2.632l2.632 7.896-2.632 7.896v2.632h23.688v-2.632l-2.632-7.896 2.632-7.896v-2.632z"></path>
</symbol>
<symbol id="icon-mdi_users" viewBox="0 0 32 32">
<path d="M21.268 22.58v2.632h-18.424v-2.632c0 0 0-5.264 9.212-5.264s9.212 5.264 9.212 5.264zM16.662 10.078c0-0.911-0.27-1.802-0.776-2.559s-1.226-1.348-2.067-1.696c-0.842-0.349-1.768-0.44-2.661-0.262s-1.714 0.616-2.358 1.261c-0.644 0.644-1.083 1.465-1.261 2.358s-0.087 1.82 0.262 2.661c0.349 0.842 0.939 1.561 1.696 2.067s1.648 0.776 2.559 0.776c1.222 0 2.393-0.485 3.257-1.349s1.349-2.035 1.349-3.257zM21.189 17.316c0.809 0.626 1.471 1.422 1.939 2.331s0.732 1.91 0.772 2.933v2.632h5.264v-2.632c0 0 0-4.777-7.975-5.264zM19.952 5.472c-0.906-0.005-1.792 0.266-2.54 0.776 0.799 1.117 1.229 2.456 1.229 3.83s-0.43 2.713-1.229 3.83c0.748 0.511 1.634 0.781 2.54 0.776 1.222 0 2.393-0.485 3.257-1.349s1.349-2.035 1.349-3.257c0-1.222-0.485-2.393-1.349-3.257s-2.035-1.349-3.257-1.349z"></path>
</symbol>
<symbol id="icon-flask" viewBox="0 0 32 32">
<path d="M19.952 12.882v-7.41h1.316c0.349 0 0.684-0.139 0.931-0.385s0.385-0.582 0.385-0.931c0-0.349-0.139-0.684-0.385-0.931s-0.582-0.385-0.931-0.385h-10.528c-0.349 0-0.684 0.139-0.931 0.385s-0.385 0.582-0.385 0.931c0 0.349 0.139 0.684 0.385 0.931s0.582 0.385 0.931 0.385h1.316v7.41l-6.879 10.108c-1.783 2.622 0.095 6.17 3.264 6.17h15.125c3.172 0 5.048-3.548 3.264-6.17l-6.878-10.108z"></path>
</symbol>
<symbol id="icon-money-cash" viewBox="0 0 32 32">
<path stroke-linejoin="round" stroke-linecap="round" stroke-miterlimit="4" stroke-width="2.6667" d="M20.57 17.143c5.681 0 10.286-2.047 10.286-4.571s-4.605-4.571-10.286-4.571c-5.681 0-10.286 2.047-10.286 4.571s4.605 4.571 10.286 4.571z"></path>
<path stroke-linejoin="round" stroke-linecap="round" stroke-miterlimit="4" stroke-width="2.6667" d="M10.285 12.571v13.714c0 2.514 4.571 4.571 10.286 4.571s10.286-2.057 10.286-4.571v-13.714"></path>
<path stroke-linejoin="round" stroke-linecap="round" stroke-miterlimit="4" stroke-width="2.6667" d="M30.857 19.429c0 2.514-4.572 4.571-10.286 4.571s-10.286-2.057-10.286-4.571M20.342 3.429c-2.671-1.648-5.78-2.445-8.914-2.286-5.691 0-10.286 2.057-10.286 4.571 0 1.349 1.326 2.56 3.429 3.429"></path>
<path stroke-linejoin="round" stroke-linecap="round" stroke-miterlimit="4" stroke-width="2.6667" d="M4.571 22.857c-2.103-0.869-3.429-2.080-3.429-3.429v-13.714"></path>
<path stroke-linejoin="round" stroke-linecap="round" stroke-miterlimit="4" stroke-width="2.6667" d="M4.571 16c-2.103-0.869-3.429-2.080-3.429-3.429"></path>
</symbol>
<symbol id="icon-trash" viewBox="0 0 32 32">
<path stroke-linejoin="round" stroke-linecap="round" stroke-miterlimit="4" stroke-width="2.6" d="M4 8h24"></path>
<path stroke-linejoin="round" stroke-linecap="round" stroke-miterlimit="4" stroke-width="2.6" d="M25.333 8v18.667c0 0.707-0.281 1.386-0.781 1.886s-1.178 0.781-1.886 0.781h-13.333c-0.707 0-1.386-0.281-1.886-0.781s-0.781-1.178-0.781-1.886v-18.667M10.667 8v-2.667c0-0.707 0.281-1.386 0.781-1.886s1.178-0.781 1.886-0.781h5.333c0.707 0 1.386 0.281 1.886 0.781s0.781 1.178 0.781 1.886v2.667"></path>
<path stroke-linejoin="round" stroke-linecap="round" stroke-miterlimit="4" stroke-width="2.6" d="M13.333 14.667v8"></path>
<path stroke-linejoin="round" stroke-linecap="round" stroke-miterlimit="4" stroke-width="2.6" d="M18.667 14.667v8"></path>
</symbol>
<symbol id="icon-close" viewBox="0 0 32 32">
<path stroke-linejoin="round" stroke-linecap="round" stroke-miterlimit="4" stroke-width="2" d="M24 8l-16 16"></path>
<path stroke-linejoin="round" stroke-linecap="round" stroke-miterlimit="4" stroke-width="2" d="M8 8l16 16"></path>
</symbol>
</defs>
</svg>
